<svg xmlns="http://www.w3.org/2000/svg" xml:space="preserve" id="Layer_1" x="0" y="0" style="enable-background:new 0 0 240.6 78.4" version="1.1" viewBox="0 0 240.6 78.4"><style>.st0{fill-rule:evenodd;clip-rule:evenodd}.st0,.st1{fill:#fff}</style><path d="M138 8.1c2.5.1 10.7-2.2 11.7 1.5.3 1.2-1.5 8.3-2.4 8.7.8 14.2-12-10.2-9.3-10.2zM121.9 8.2c-2.5.1-10.7-2.2-11.7 1.4-.3 1.2 1.5 8.3 2.4 8.7-.8 14.2 12.1-10.1 9.3-10.1zM131.9 22.8H128c-1.4 0-2.5 1.1-2.5 2.5 0 1.2.8 2.1 1.9 2.4.2.9.9 1.5 1.8 1.7v6.3c0 .4.3.6.6.6.4 0 .6-.3.6-.6v-6.4c.8-.3 1.3-.9 1.6-1.6 1.2-.1 2.2-1.2 2.2-2.4.1-1.4-1-2.5-2.3-2.5z" class="st0"/><path d="M39.5 36.5c0 2.8-1 5-2.9 6.6-1.9 1.6-4.2 2.3-7 2.3H7.4v-5.1h22.2c1.4 0 2.6-.3 3.6-.9 1.2-.8 1.7-1.8 1.7-3.1s-.6-2.3-1.8-3c-1-.6-2.2-.9-3.6-.9H15.8c-2.5 0-4.6-.7-6.3-2.1-1.8-1.5-2.7-3.5-2.7-6 0-2.4.9-4.4 2.7-5.9 1.7-1.4 3.8-2.1 6.3-2.1h21.9v5.1H15.8c-1 0-1.8.3-2.5.8s-1 1.3-1 2.2c0 .9.3 1.7 1 2.2.7.5 1.5.8 2.5.8h13.7c2.8 0 5.1.8 7 2.4 2 1.7 3 4 3 6.7zM72.9 45.5H56.5c-4.2 0-7.7-1.4-10.5-4.2-2.8-2.8-4.1-6.4-4.1-10.6 0-4.3 1.4-7.7 4.1-10.3 2.7-2.6 6.2-3.9 10.5-3.9h16.4v5.1H56.5c-2.8 0-5.1.9-6.9 2.7-1.8 1.8-2.7 4.1-2.7 6.9 0 2.8.9 5 2.7 6.8 1.8 1.7 4.1 2.6 6.9 2.6h16.4v4.9zM102.2 16.4v11.9H82.9V16.4h-5.1v29.1h5.1V33.4h19.3v12.1h5.1V16.4zM146 32.4c0 4.7-1.4 8.1-4.2 10.2-2.5 1.9-6.1 2.8-11 2.8h-1.7c-4.8 0-8.5-.9-11-2.8-2.8-2.2-4.2-5.6-4.2-10.2v-16h5.1v16c0 3.5 1.2 5.8 3.6 6.9 1.6.7 4.3 1.1 8.3 1.1 3.3 0 5.7-.5 7.2-1.5 1.9-1.2 2.9-3.4 2.9-6.5v-16h5.1v16zM177.5 45.5h-25.1v-29h5.1v24h20v5zM197.9 21.5h-11.4v24h-5v-24H170v-5.1h27.9v5.1zM232.3 45.5h-27.1c-2.2 0-3.3-.7-3.3-2.1 0-.9.5-1.8 1.6-2.9l19-19.1h-21.3v-5.1h26.7c.9 0 1.6.2 2.3.6.7.4 1.1 1.1 1.1 1.9 0 .9-.4 1.7-1.3 2.5l-19 19.1h21.3v5.1z" class="st1"/><path d="M125.3 16.2c-1.1 0-1.9.8-2 1.9h-.1c-.5.2-.8.8-.6 1.3.2.5.8.8 1.3.6l.4-.1c.3.1.6.2.9.2 1.1 0 2-.9 2-2 .1-1.1-.8-1.9-1.9-1.9zM134.6 16.2c1.1 0 1.9.8 2 1.9h.1c.5.2.8.8.6 1.3-.2.5-.8.8-1.3.6l-.4-.1c-.3.1-.6.2-.9.2-1.1 0-2-.9-2-2-.1-1.1.8-1.9 1.9-1.9z" class="st0"/><path d="M136.7 56.5c-.7-1.1-1.6-2-2.7-2.7-.4-.2-.8-.4-1.2-.5V57l.3.3c.7.8 1.1 1.7 1.1 2.9s-.4 2.2-1.1 3c-.7.8-1.6 1.1-2.7 1.1s-2-.4-2.7-1.1c-.7-.8-1.1-1.7-1.1-3 0-1.2.4-2.2 1.1-2.9l.3-.3v-3.8c-.9.3-1.7.8-2.5 1.5-1.6 1.5-2.4 3.3-2.4 5.5 0 2 .7 3.8 2.1 5.2 1.4 1.4 3.1 2.1 5.1 2.1 1.4 0 2.6-.3 3.7-1 1.1-.6 2-1.5 2.7-2.7.7-1.1 1-2.4 1-3.7-.1-1.3-.4-2.5-1-3.6z" class="st1"/><path d="M128.7 50.3c0-1 .7-1.9 1.6-1.9.9 0 1.6.8 1.6 1.9v8.3c0 1-.7 1.9-1.6 1.9-.9 0-1.6-.8-1.6-1.9v-8.3z" class="st0"/><path d="M50.1 48h3.5v5.2h2.1v3h-2.1v11h-3.5v-11h-1.8v-3h1.8V48zM71.6 61.2H60.3c.2 1 .6 1.8 1.3 2.4.7.6 1.6.9 2.7.9 1.3 0 2.4-.5 3.4-1.4l3 1.4c-.7 1-1.6 1.8-2.7 2.3-1 .5-2.3.8-3.7.8-2.2 0-4-.7-5.4-2.1-1.4-1.4-2.1-3.1-2.1-5.2s.7-3.9 2.1-5.3c1.4-1.4 3.1-2.1 5.2-2.1 2.2 0 4 .7 5.4 2.1 1.4 1.4 2.1 3.3 2.1 5.6v.6zm-3.5-2.8c-.2-.8-.7-1.4-1.4-1.9s-1.5-.7-2.4-.7c-1 0-1.8.3-2.6.8-.5.3-.9.9-1.3 1.8h7.7zM88.1 56l-2.9 1.6c-.5-.6-1.1-1-1.6-1.2-.5-.2-1.2-.3-1.9-.3-1.3 0-2.4.4-3.2 1.2-.8.8-1.2 1.8-1.2 3s.4 2.2 1.2 2.9c.8.8 1.8 1.1 3.1 1.1 1.6 0 2.8-.5 3.7-1.6l2.8 1.9c-1.5 2-3.6 2.9-6.4 2.9-2.5 0-4.4-.7-5.8-2.2-1.4-1.5-2.1-3.2-2.1-5.1 0-1.4.3-2.6 1-3.8.7-1.1 1.6-2 2.8-2.7 1.2-.7 2.6-1 4.1-1 1.4 0 2.6.3 3.7.8 1.1.7 2 1.5 2.7 2.5zM91.3 47.7h3.5v6.8c.7-.6 1.4-1 2.1-1.3.7-.3 1.4-.4 2.1-.4 1.4 0 2.6.5 3.5 1.4.8.8 1.2 2.1 1.2 3.7v9.3h-3.5V61c0-1.6-.1-2.7-.2-3.3-.2-.6-.4-1-.8-1.3-.4-.3-.8-.4-1.4-.4-.7 0-1.3.2-1.8.7-.5.5-.9 1.1-1.1 1.9-.1.4-.2 1.4-.2 2.9v5.6h-3.5V47.7zM107.1 53.1h3.5v1.4c.8-.7 1.5-1.1 2.2-1.4.6-.3 1.3-.4 2-.4 1.4 0 2.6.5 3.5 1.5.8.8 1.2 2 1.2 3.7v9.3H116V61c0-1.7-.1-2.8-.2-3.3s-.4-1-.8-1.3c-.4-.3-.8-.4-1.4-.4-.7 0-1.3.2-1.8.7-.5.5-.9 1.1-1.1 2-.1.4-.2 1.4-.2 2.8v5.6H107v-14zM141.5 47.7h3.5v19.4h-3.5V47.7zM154.8 52.8c1.3 0 2.6.3 3.7 1 1.2.7 2.1 1.6 2.7 2.7.7 1.1 1 2.4 1 3.7 0 1.3-.3 2.6-1 3.7-.7 1.2-1.6 2.1-2.7 2.7-1.1.7-2.4 1-3.7 1-2 0-3.7-.7-5.1-2.1-1.4-1.4-2.1-3.2-2.1-5.2 0-2.2.8-4 2.4-5.5 1.4-1.4 3-2 4.8-2zm.1 3.3c-1.1 0-2 .4-2.7 1.1-.7.8-1.1 1.7-1.1 2.9s.4 2.2 1.1 3c.7.8 1.6 1.1 2.7 1.1s2-.4 2.7-1.1c.7-.8 1.1-1.8 1.1-3s-.4-2.2-1.1-2.9c-.7-.7-1.6-1.1-2.7-1.1zM175.5 53.1h3.5v12c0 2.4-.5 4.1-1.4 5.2-1.3 1.5-3.2 2.3-5.8 2.3-1.4 0-2.5-.2-3.5-.5-.9-.3-1.7-.9-2.4-1.5-.6-.7-1.1-1.5-1.4-2.4h3.9c.3.4.8.7 1.3.9.5.2 1.2.3 1.9.3.9 0 1.7-.1 2.3-.4.6-.3 1-.7 1.2-1.1.2-.5.4-1.3.4-2.4-.6.6-1.3 1.1-1.9 1.3-.7.3-1.4.4-2.3.4-1.9 0-3.5-.7-4.8-2-1.3-1.4-1.9-3.1-1.9-5.2 0-2.2.7-4 2.1-5.4 1.2-1.2 2.7-1.8 4.5-1.8.8 0 1.6.1 2.3.4.7.3 1.4.8 2.2 1.5v-1.6zm-3.7 3c-1.1 0-2 .4-2.7 1.1-.7.7-1.1 1.7-1.1 2.8 0 1.2.4 2.1 1.1 2.9.7.7 1.7 1.1 2.8 1.1 1.1 0 2-.4 2.7-1.1.7-.7 1.1-1.7 1.1-2.9s-.4-2.1-1.1-2.8c-.7-.8-1.6-1.1-2.8-1.1zM181 53.1h3.6l3.6 8.8 4-8.8h3.6L187 72.2h-3.6l2.9-6.2-5.3-12.9z"/></svg>